<?xml version="1.0" standalone="no"?><!DOCTYPE svg PUBLIC "-//W3C//DTD SVG 1.1//EN" "http://www.w3.org/Graphics/SVG/1.1/DTD/svg11.dtd"><svg t="1625676601390" class="icon" viewBox="0 0 1024 1024" version="1.1" xmlns="http://www.w3.org/2000/svg" p-id="4139" xmlns:xlink="http://www.w3.org/1999/xlink" width="200" height="200"><defs><style type="text/css"></style></defs><path d="M508.266 954.774c-243.413 0-441.493-198.08-441.493-441.494S264.853 71.787 508.266 71.787c18.24 0 33.067 14.827 33.067 33.067s-14.827 33.066-33.067 33.066c-206.933 0-375.253 168.32-375.253 375.253s168.32 375.36 375.253 375.36S883.52 720.213 883.52 513.28c0-18.24 14.827-33.067 33.067-33.067s33.066 14.828 33.066 33.067c0.107 243.413-197.974 441.494-441.387 441.494z" p-id="4140"></path><path d="M640.747 481.813h-264.96c-18.24 0-33.066-14.827-33.066-33.066s14.827-33.067 33.066-33.067h264.854c18.24 0 33.066 14.827 33.066 33.067s-14.72 33.066-32.959 33.066z m0 128h-264.96c-18.24 0-33.066-14.827-33.066-33.067s14.827-33.066 33.066-33.066h264.854c18.24 0 33.066 14.827 33.066 33.066s-14.72 33.067-32.959 33.067z" p-id="4141"></path><path d="M508.266 742.294c-18.24 0-33.066-14.827-33.066-33.067v-264.96c0-18.24 14.827-33.067 33.066-33.067s33.067 14.827 33.067 33.067V709.12c0 18.347-14.827 33.174-33.067 33.174z" p-id="4142"></path><path d="M508.266 459.733c-8.426 0-16.959-3.199-23.36-9.706L375.575 340.8c-12.907-12.906-12.907-33.92 0-46.827 12.906-12.906 33.92-12.906 46.826 0L531.627 403.2c12.907 12.907 12.907 33.92 0 46.827-6.4 6.506-14.934 9.706-23.36 9.706z" p-id="4143"></path><path d="M508.266 459.733c-8.426 0-16.959-3.199-23.36-9.706-12.906-12.907-12.906-33.92 0-46.827l109.227-109.227c12.907-12.906 33.92-12.906 46.827 0 12.907 12.907 12.907 33.92 0 46.827L531.626 450.027c-6.4 6.506-14.934 9.706-23.36 9.706z m181.547-212.48c8.427 0 16.96-3.199 23.36-9.706L822.4 128.32c12.907-12.906 12.907-33.92 0-46.827-12.907-12.906-33.92-12.906-46.827 0l-109.12 109.334c-12.906 12.906-12.906 33.92 0 46.826 6.4 6.4 14.933 9.6 23.36 9.6z" p-id="4144"></path><path d="M799.04 356.587c8.426 0 16.96-3.2 23.36-9.707 12.907-12.907 12.907-33.92 0-46.826L713.174 190.827c-12.907-12.907-33.92-12.907-46.828 0-12.906 12.906-12.906 33.92 0 46.826L775.573 346.88c6.507 6.4 15.04 9.707 23.467 9.707z" p-id="4145"></path><path d="M695.894 247.253h220.693c18.24 0 33.066-14.827 33.066-33.066s-14.827-33.067-33.066-33.067H695.894c-18.24 0-33.068 14.827-33.068 33.067s14.72 33.066 33.068 33.066z" p-id="4146"></path></svg>